<svg width="80" height="80" viewBox="0 0 80 80" fill="none" xmlns="http://www.w3.org/2000/svg">
<path d="M20.0906 49.5405C14.8124 51.1826 11.5479 53.4511 11.5479 55.9568C11.5479 60.9683 24.6062 65.0309 40.7145 65.0309C56.8228 65.0309 69.8812 60.9683 69.8812 55.9568C69.8812 53.4511 66.6166 51.1826 61.3384 49.5405" stroke="#C8C8C8" stroke-width="3" stroke-linecap="round" stroke-linejoin="round"/>
<path d="M40.7144 52.9321C40.7144 52.9321 59.6728 40.0832 59.6728 25.2286C59.6728 14.6362 51.1848 6.04938 40.7144 6.04938C30.244 6.04938 21.7561 14.6362 21.7561 25.2286C21.7561 40.0832 40.7144 52.9321 40.7144 52.9321Z" stroke="#C8C8C8" stroke-width="3" stroke-linejoin="round"/>
<path d="M40.7145 33.2716C44.7416 33.2716 48.0062 29.8861 48.0062 25.7099C48.0062 21.5337 44.7416 18.1482 40.7145 18.1482C36.6875 18.1482 33.4229 21.5337 33.4229 25.7099C33.4229 29.8861 36.6875 33.2716 40.7145 33.2716Z" stroke="#C8C8C8" stroke-width="3" stroke-linejoin="round"/>
<path d="M39.3608 73.545L56.2963 45.7672L73.2318 73.545H39.3608Z" fill="#FCE8E8"/>
<path fill-rule="evenodd" clip-rule="evenodd" d="M58.7615 48.3702C57.6556 46.4904 54.9371 46.4904 53.8313 48.3702L41.0901 70.0285C39.9684 71.9351 41.3431 74.3387 43.5551 74.3387H69.0376C71.2496 74.3387 72.6243 71.9351 71.5027 70.0285L58.7615 48.3702Z" stroke="#E1151C" stroke-width="3" stroke-linejoin="round"/>
<path d="M56.2961 67.9895V68.7832" stroke="#E1151C" stroke-width="3" stroke-linecap="round" stroke-linejoin="round"/>
<path d="M56.2961 55.2914L56.3031 63.2275" stroke="#E1151C" stroke-width="3" stroke-linecap="round" stroke-linejoin="round"/>
</svg>
