<svg width="80" height="80" viewBox="0 0 80 80" fill="none" xmlns="http://www.w3.org/2000/svg">
<rect x="8" y="16" width="64" height="48" rx="4" stroke="#C8C8C8" stroke-width="3" stroke-miterlimit="10" stroke-linecap="round" stroke-linejoin="round"/>
<path d="M15 23H65V57H15V23Z" stroke="#C8C8C8" stroke-width="3" stroke-miterlimit="10" stroke-linecap="round" stroke-linejoin="round"/>
<path d="M22.5 49L34 33.5L44 48L51 41L56.5 48" stroke="#C8C8C8" stroke-width="3" stroke-miterlimit="10" stroke-linecap="round" stroke-linejoin="round"/>
<path d="M39.4194 74.3333L56.3549 46.5555L73.2904 74.3333H39.4194Z" fill="#FCE8E8"/>
<path fill-rule="evenodd" clip-rule="evenodd" d="M58.8201 49.1585C57.7142 47.2788 54.9957 47.2788 53.8899 49.1585L41.1486 70.8168C40.027 72.7234 41.4017 75.127 43.6137 75.127H69.0962C71.3082 75.127 72.6829 72.7234 71.5613 70.8168L58.8201 49.1585Z" stroke="#E1151C" stroke-width="3" stroke-linejoin="round"/>
<path d="M56.3547 68.7778V69.5715" stroke="#E1151C" stroke-width="3" stroke-linecap="round" stroke-linejoin="round"/>
<path d="M56.3547 56.0797L56.3617 64.0158" stroke="#E1151C" stroke-width="3" stroke-linecap="round" stroke-linejoin="round"/>
</svg>
