<svg width="80" height="80" viewBox="0 0 80 80" fill="none" xmlns="http://www.w3.org/2000/svg">
<path d="M15.2979 10.1235H61.8455" stroke="#C8C8C8" stroke-width="3" stroke-linecap="round" stroke-linejoin="round"/>
<path d="M15.2979 66.9136H61.8455" stroke="#C8C8C8" stroke-width="3" stroke-linecap="round" stroke-linejoin="round"/>
<path d="M20.7739 66.9136C24.4248 47.9757 30.3573 38.5106 38.5715 38.5186C46.7858 38.5265 52.7183 47.9914 56.3692 66.9136H20.7739Z" stroke="#C8C8C8" stroke-width="3" stroke-linejoin="round"/>
<path d="M56.3692 10.1235C52.7183 29.0614 46.7858 38.5265 38.5715 38.5185C30.3573 38.5106 24.4248 29.0457 20.7739 10.1235H56.3692Z" stroke="#C8C8C8" stroke-width="3" stroke-linejoin="round"/>
<path d="M34.4644 25.7407H42.6786" stroke="#C8C8C8" stroke-width="3" stroke-linecap="round" stroke-linejoin="round"/>
<path d="M31.7263 58.395H45.4168" stroke="#C8C8C8" stroke-width="3" stroke-linecap="round" stroke-linejoin="round"/>
<path d="M39.4194 74.3333L56.3549 46.5555L73.2904 74.3333H39.4194Z" fill="#FCE8E8"/>
<path fill-rule="evenodd" clip-rule="evenodd" d="M58.8201 49.1585C57.7142 47.2788 54.9957 47.2788 53.8899 49.1585L41.1486 70.8168C40.027 72.7234 41.4017 75.127 43.6137 75.127H69.0962C71.3082 75.127 72.6829 72.7234 71.5613 70.8168L58.8201 49.1585Z" stroke="#E1151C" stroke-width="3" stroke-linejoin="round"/>
<path d="M56.3547 68.7778V69.5715" stroke="#E1151C" stroke-width="3" stroke-linecap="round" stroke-linejoin="round"/>
<path d="M56.3547 56.0797L56.3617 64.0158" stroke="#E1151C" stroke-width="3" stroke-linecap="round" stroke-linejoin="round"/>
</svg>
