<svg width="80" height="80" viewBox="0 0 80 80" fill="none" xmlns="http://www.w3.org/2000/svg">
<path d="M15.2979 10.1235H61.8455" stroke="#C8C8C8" stroke-width="3" stroke-linecap="round" stroke-linejoin="round"/>
<path d="M15.2979 66.9136H61.8455" stroke="#C8C8C8" stroke-width="3" stroke-linecap="round" stroke-linejoin="round"/>
<path d="M20.7739 66.9136C24.4248 47.9756 30.3573 38.5105 38.5715 38.5185C46.7858 38.5264 52.7183 47.9914 56.3692 66.9136H20.7739Z" stroke="#C8C8C8" stroke-width="3" stroke-linejoin="round"/>
<path d="M56.3692 10.1235C52.7183 29.0614 46.7858 38.5265 38.5715 38.5185C30.3573 38.5106 24.4248 29.0457 20.7739 10.1235H56.3692Z" stroke="#C8C8C8" stroke-width="3" stroke-linejoin="round"/>
<path d="M34.4644 25.7407H42.6786" stroke="#C8C8C8" stroke-width="3" stroke-linecap="round" stroke-linejoin="round"/>
<path d="M31.7263 58.3951H45.4168" stroke="#C8C8C8" stroke-width="3" stroke-linecap="round" stroke-linejoin="round"/>
<circle cx="56.2965" cy="59.2593" r="16.0494" fill="#FCE8E8"/>
<path d="M56.2965 75.3087C65.1603 75.3087 72.3458 68.1231 72.3458 59.2593C72.3458 50.3954 65.1603 43.2099 56.2965 43.2099C47.4326 43.2099 40.2471 50.3954 40.2471 59.2593C40.2471 68.1231 47.4326 75.3087 56.2965 75.3087Z" stroke="#E1151C" stroke-width="3" stroke-linejoin="round"/>
<path d="M60.8357 54.7198L51.7568 63.7987" stroke="#E1151C" stroke-width="3" stroke-linecap="round" stroke-linejoin="round"/>
<path d="M51.7571 54.7198L60.836 63.7987" stroke="#E1151C" stroke-width="3" stroke-linecap="round" stroke-linejoin="round"/>
</svg>
