<svg width="80" height="80" viewBox="0 0 80 80" fill="none" xmlns="http://www.w3.org/2000/svg">
<path d="M67.7776 17.5074C67.7776 15.9295 66.4984 14.6503 64.9205 14.6503H13.4919C11.914 14.6503 10.6348 15.9295 10.6348 17.5074V33.5215C10.6348 35.0995 11.914 36.3787 13.4919 36.3787H64.9205C66.4984 36.3787 67.7776 35.0995 67.7776 33.5215V17.5074Z" stroke="#C8C8C8" stroke-width="3" stroke-linejoin="round"/>
<path d="M67.7776 45.2715C67.7776 43.6935 66.4984 42.4143 64.9205 42.4143H13.4919C11.914 42.4143 10.6348 43.6935 10.6348 45.2714V61.2856C10.6348 62.8635 11.914 64.1427 13.4919 64.1427H64.9205C66.4984 64.1427 67.7776 62.8635 67.7776 61.2856V45.2715Z" stroke="#C8C8C8" stroke-width="3" stroke-linejoin="round"/>
<path d="M23.492 22.7984H20.6349C19.8459 22.7984 19.2063 23.4064 19.2063 24.1564V26.8725C19.2063 27.6225 19.8459 28.2305 20.6349 28.2305H23.492C24.281 28.2305 24.9206 27.6225 24.9206 26.8725V24.1564C24.9206 23.4064 24.281 22.7984 23.492 22.7984Z" fill="#C8C8C8"/>
<path d="M23.492 50.5624H20.6349C19.8459 50.5624 19.2063 51.1704 19.2063 51.9205V54.6365C19.2063 55.3865 19.8459 55.9945 20.6349 55.9945H23.492C24.281 55.9945 24.9206 55.3865 24.9206 54.6365V51.9205C24.9206 51.1704 24.281 50.5624 23.492 50.5624Z" fill="#C8C8C8"/>
<path d="M34.9205 22.7984H32.0633C31.2743 22.7984 30.6348 23.4064 30.6348 24.1564V26.8725C30.6348 27.6225 31.2743 28.2305 32.0633 28.2305H34.9205C35.7095 28.2305 36.3491 27.6225 36.3491 26.8725V24.1564C36.3491 23.4064 35.7095 22.7984 34.9205 22.7984Z" fill="#C8C8C8"/>
<path d="M34.9205 50.5624H32.0633C31.2743 50.5624 30.6348 51.1704 30.6348 51.9205V54.6365C30.6348 55.3865 31.2743 55.9945 32.0633 55.9945H34.9205C35.7095 55.9945 36.3491 55.3865 36.3491 54.6365V51.9205C36.3491 51.1704 35.7095 50.5624 34.9205 50.5624Z" fill="#C8C8C8"/>
<circle cx="56.2965" cy="59.2593" r="16.0494" fill="#FCE8E8"/>
<path d="M56.2965 75.3087C65.1603 75.3087 72.3458 68.1231 72.3458 59.2593C72.3458 50.3954 65.1603 43.2099 56.2965 43.2099C47.4326 43.2099 40.2471 50.3954 40.2471 59.2593C40.2471 68.1231 47.4326 75.3087 56.2965 75.3087Z" stroke="#E1151C" stroke-width="3" stroke-linejoin="round"/>
<path d="M60.8357 54.7198L51.7568 63.7987" stroke="#E1151C" stroke-width="3" stroke-linecap="round" stroke-linejoin="round"/>
<path d="M51.7571 54.7198L60.836 63.7987" stroke="#E1151C" stroke-width="3" stroke-linecap="round" stroke-linejoin="round"/>
</svg>
