<svg width="56" height="56" viewBox="0 0 56 56" fill="none" xmlns="http://www.w3.org/2000/svg">
<path d="M47.4443 12.2552C47.4443 11.1506 46.5489 10.2552 45.4443 10.2552H9.44434C8.33977 10.2552 7.44434 11.1506 7.44434 12.2552V23.465C7.44434 24.5696 8.33977 25.465 9.44434 25.465H45.4443C46.5489 25.465 47.4443 24.5696 47.4443 23.465V12.2552Z" stroke="#C8C8C8" stroke-width="2" stroke-linejoin="round"/>
<path d="M47.4443 31.69C47.4443 30.5854 46.5489 29.69 45.4443 29.69H9.44434C8.33977 29.69 7.44434 30.5854 7.44434 31.69V42.8999C7.44434 44.0044 8.33977 44.8999 9.44434 44.8999H45.4443C46.5489 44.8999 47.4443 44.0044 47.4443 42.8999V31.69Z" stroke="#C8C8C8" stroke-width="2" stroke-linejoin="round"/>
<path d="M16.4443 15.9589H14.4443C13.892 15.9589 13.4443 16.3845 13.4443 16.9095V18.8107C13.4443 19.3357 13.892 19.7613 14.4443 19.7613H16.4443C16.9966 19.7613 17.4443 19.3357 17.4443 18.8107V16.9095C17.4443 16.3845 16.9966 15.9589 16.4443 15.9589Z" fill="#C8C8C8"/>
<path d="M16.4443 35.3937H14.4443C13.892 35.3937 13.4443 35.8193 13.4443 36.3443V38.2456C13.4443 38.7706 13.892 39.1962 14.4443 39.1962H16.4443C16.9966 39.1962 17.4443 38.7706 17.4443 38.2456V36.3443C17.4443 35.8193 16.9966 35.3937 16.4443 35.3937Z" fill="#C8C8C8"/>
<path d="M24.4443 15.9589H22.4443C21.892 15.9589 21.4443 16.3845 21.4443 16.9095V18.8107C21.4443 19.3357 21.892 19.7613 22.4443 19.7613H24.4443C24.9966 19.7613 25.4443 19.3357 25.4443 18.8107V16.9095C25.4443 16.3845 24.9966 15.9589 24.4443 15.9589Z" fill="#C8C8C8"/>
<path d="M24.4443 35.3937H22.4443C21.892 35.3937 21.4443 35.8193 21.4443 36.3443V38.2456C21.4443 38.7706 21.892 39.1962 22.4443 39.1962H24.4443C24.9966 39.1962 25.4443 38.7706 25.4443 38.2456V36.3443C25.4443 35.8193 24.9966 35.3937 24.4443 35.3937Z" fill="#C8C8C8"/>
<circle cx="39.4074" cy="41.4815" r="11.2346" fill="#FCE8E8"/>
<path d="M39.4074 52.7161C45.6121 52.7161 50.642 47.6862 50.642 41.4815C50.642 35.2768 45.6121 30.2469 39.4074 30.2469C33.2027 30.2469 28.1729 35.2768 28.1729 41.4815C28.1729 47.6862 33.2027 52.7161 39.4074 52.7161Z" stroke="#E1151C" stroke-width="2" stroke-linejoin="round"/>
<path d="M42.585 38.3039L36.2297 44.6591" stroke="#E1151C" stroke-width="2" stroke-linecap="round" stroke-linejoin="round"/>
<path d="M36.23 38.3039L42.5852 44.6591" stroke="#E1151C" stroke-width="2" stroke-linecap="round" stroke-linejoin="round"/>
</svg>
