<svg width="80" height="80" viewBox="0 0 80 80" fill="none" xmlns="http://www.w3.org/2000/svg">
<path d="M23.4928 17.2222C21.1202 17.2222 19.7813 19.9468 21.231 21.8251L35.5117 40.328C35.8977 40.8281 36.107 41.442 36.107 42.0737V57.3335C36.107 58.3771 36.6761 59.3378 37.5914 59.8392L45.3213 64.0741V42.0737C45.3213 41.442 45.5307 40.8281 45.9167 40.328L60.1974 21.8251C61.6471 19.9468 60.3082 17.2222 57.9356 17.2222H23.4928Z" stroke="#C8C8C8" stroke-width="3" stroke-linejoin="round"/>
<circle cx="56.2965" cy="59.2593" r="16.0494" fill="#FCE8E8"/>
<path d="M56.2965 75.3087C65.1603 75.3087 72.3458 68.1231 72.3458 59.2593C72.3458 50.3954 65.1603 43.2099 56.2965 43.2099C47.4326 43.2099 40.2471 50.3954 40.2471 59.2593C40.2471 68.1231 47.4326 75.3087 56.2965 75.3087Z" stroke="#E1151C" stroke-width="3" stroke-linejoin="round"/>
<path d="M60.8357 54.7198L51.7568 63.7987" stroke="#E1151C" stroke-width="3" stroke-linecap="round" stroke-linejoin="round"/>
<path d="M51.7571 54.7198L60.836 63.7987" stroke="#E1151C" stroke-width="3" stroke-linecap="round" stroke-linejoin="round"/>
</svg>
