<svg width="80" height="80" viewBox="0 0 80 80" fill="none" xmlns="http://www.w3.org/2000/svg">
<path d="M22.7445 30.2613C16.3235 31.7479 11.5479 37.368 11.5479 44.0741C11.5479 51.9151 18.077 58.2716 26.1312 58.2716C27.5128 58.2716 28.8495 58.0846 30.1161 57.7351" stroke="#C8C8C8" stroke-width="3" stroke-linecap="round" stroke-linejoin="round"/>
<path d="M58.2939 30.2613C64.715 31.7479 69.4906 37.368 69.4906 44.0741C69.4906 51.9151 62.9615 58.2716 54.9073 58.2716C53.5256 58.2716 52.1889 58.0846 50.9224 57.7351" stroke="#C8C8C8" stroke-width="3" stroke-linecap="round" stroke-linejoin="round"/>
<path d="M58.2144 29.8766C58.2144 20.4673 50.3793 12.8395 40.7144 12.8395C31.0494 12.8395 23.2144 20.4673 23.2144 29.8766" stroke="#C8C8C8" stroke-width="3" stroke-linecap="round" stroke-linejoin="round"/>
<path d="M32.9365 34.2934L40.7142 26.7216L48.4918 34.2934" stroke="#C8C8C8" stroke-width="3" stroke-linecap="round" stroke-linejoin="round"/>
<path d="M40.7144 46.5982V28.565" stroke="#C8C8C8" stroke-width="3" stroke-linecap="round" stroke-linejoin="round"/>
<circle cx="56.2965" cy="59.2593" r="16.0494" fill="#FCE8E8"/>
<path d="M56.2965 75.3087C65.1603 75.3087 72.3458 68.1231 72.3458 59.2593C72.3458 50.3954 65.1603 43.2099 56.2965 43.2099C47.4326 43.2099 40.2471 50.3954 40.2471 59.2593C40.2471 68.1231 47.4326 75.3087 56.2965 75.3087Z" stroke="#E1151C" stroke-width="3" stroke-linejoin="round"/>
<path d="M60.8352 54.7198L51.7563 63.7987" stroke="#E1151C" stroke-width="3" stroke-linecap="round" stroke-linejoin="round"/>
<path d="M51.7563 54.7198L60.8352 63.7987" stroke="#E1151C" stroke-width="3" stroke-linecap="round" stroke-linejoin="round"/>
</svg>
