<svg width="56" height="56" viewBox="0 0 56 56" fill="none" xmlns="http://www.w3.org/2000/svg">
<path d="M6 18.9653C6.5888 18.4073 7.19522 17.8786 7.8174 17.3792C19.0371 8.37423 35.3821 8.90292 46 18.9653" stroke="#C8C8C8" stroke-width="2" stroke-linecap="round" stroke-linejoin="round"/>
<path d="M40 25.799C32.268 18.067 19.732 18.067 12 25.799" stroke="#C8C8C8" stroke-width="2" stroke-linecap="round" stroke-linejoin="round"/>
<path d="M34 32.3137C29.5817 27.8954 22.4183 27.8954 18 32.3137" stroke="#C8C8C8" stroke-width="2" stroke-linecap="round" stroke-linejoin="round"/>
<path d="M26 36C26.8284 36 27.5 36.6716 27.5 37.5C27.5 38.3284 26.8284 39 26 39C25.1716 39 24.5 38.3284 24.5 37.5C24.5 36.6716 25.1716 36 26 36Z" fill="#C8C8C8" stroke="#C8C8C8" stroke-width="2"/>
<circle cx="39.4074" cy="41.4815" r="11.2346" fill="#FCE8E8"/>
<path d="M39.4074 52.7161C45.6121 52.7161 50.642 47.6862 50.642 41.4815C50.642 35.2768 45.6121 30.2469 39.4074 30.2469C33.2027 30.2469 28.1729 35.2768 28.1729 41.4815C28.1729 47.6862 33.2027 52.7161 39.4074 52.7161Z" stroke="#E1151C" stroke-width="2" stroke-linejoin="round"/>
<path d="M42.585 38.3039L36.2297 44.6591" stroke="#E1151C" stroke-width="2" stroke-linecap="round" stroke-linejoin="round"/>
<path d="M36.23 38.3039L42.5852 44.6591" stroke="#E1151C" stroke-width="2" stroke-linecap="round" stroke-linejoin="round"/>
</svg>
