<svg width="80" height="80" viewBox="0 0 80 80" fill="none" xmlns="http://www.w3.org/2000/svg">
<path d="M10.601 65.1715C10.601 65.8267 11.1494 66.3579 11.8259 66.3579L68.1702 66.358C68.8467 66.358 69.3951 65.8269 69.3951 65.1718V63.7548C69.4233 63.3278 69.4806 61.1968 68.0719 58.8409C67.1836 57.3554 65.8944 56.0721 64.24 55.0267C62.2386 53.762 59.6927 52.8457 56.6132 52.294C56.5905 52.2911 54.3071 51.9892 51.9679 51.3935C47.8944 50.356 47.5383 49.4378 47.536 49.4289C47.512 49.3381 47.4773 49.2509 47.4329 49.169C47.3996 48.9977 47.3173 48.3531 47.4747 46.6259C47.8743 42.2392 50.2341 39.6466 52.1302 37.5636C52.7282 36.9066 53.2929 36.2861 53.728 35.6776C55.6042 33.0526 55.7783 30.0678 55.7862 29.8827C55.7862 29.5079 55.743 29.1997 55.6506 28.9141C55.4664 28.3424 55.1199 27.9863 54.8669 27.7262L54.8652 27.7244C54.8014 27.659 54.7412 27.5969 54.692 27.54C54.6733 27.5182 54.6234 27.4607 54.6688 27.1651C54.8353 26.0773 54.9353 25.1665 54.9833 24.2988C55.0687 22.7528 55.1354 20.4408 54.7355 18.1906C54.6861 17.8063 54.6013 17.4005 54.4693 16.917C54.0468 15.3675 53.368 14.0428 52.4249 12.9495C52.2627 12.7735 48.3194 8.63088 36.8719 7.78089C35.289 7.66338 33.7242 7.72668 32.1839 7.80518C31.8126 7.82349 31.3042 7.84861 30.8285 7.97153C29.6466 8.27682 29.3312 9.02382 29.2484 9.4419C29.1111 10.1344 29.3524 10.6731 29.5119 11.0296C29.5351 11.0813 29.5638 11.1453 29.5138 11.3117C29.2481 11.722 28.83 12.092 28.4038 12.4425C28.2806 12.5469 25.4101 15.015 25.2523 18.2391C24.8267 20.6911 24.8589 24.5114 25.3621 27.1519C25.3914 27.2977 25.4346 27.5136 25.3645 27.6594C24.8233 28.1431 24.2098 28.6912 24.2113 29.942C24.2178 30.0678 24.3919 33.0526 26.2683 35.6776C26.7028 36.2857 27.2671 36.9057 27.8646 37.5622L27.866 37.5636C29.7622 39.6466 32.1218 42.2392 32.5216 46.6258C32.6788 48.3529 32.5965 48.9977 32.5632 49.1688C32.5188 49.2508 32.4841 49.338 32.4603 49.4287C32.4578 49.4377 32.1031 50.3529 28.048 51.3883C25.7086 51.9857 23.4056 52.2909 23.3369 52.3008C20.3443 52.8045 17.8139 53.698 15.8161 54.956C14.1673 55.9945 12.8757 57.2801 11.9771 58.7773C10.5413 61.1696 10.5801 63.3483 10.601 63.746V65.1715Z" stroke="#C8C8C8" stroke-width="3" stroke-linejoin="round"/>
<circle cx="56.2965" cy="59.2593" r="16.0494" fill="#FCE8E8"/>
<path d="M56.2965 75.3087C65.1603 75.3087 72.3458 68.1231 72.3458 59.2593C72.3458 50.3954 65.1603 43.2099 56.2965 43.2099C47.4326 43.2099 40.2471 50.3954 40.2471 59.2593C40.2471 68.1231 47.4326 75.3087 56.2965 75.3087Z" stroke="#E1151C" stroke-width="3" stroke-linejoin="round"/>
<path d="M60.8357 54.7198L51.7568 63.7987" stroke="#E1151C" stroke-width="3" stroke-linecap="round" stroke-linejoin="round"/>
<path d="M51.7571 54.7198L60.836 63.7987" stroke="#E1151C" stroke-width="3" stroke-linecap="round" stroke-linejoin="round"/>
</svg>
