<svg width="80" height="80" viewBox="0 0 80 80" fill="none" xmlns="http://www.w3.org/2000/svg">
<path d="M22.7445 30.2613C16.3235 31.7479 11.5479 37.368 11.5479 44.0741C11.5479 51.9151 18.077 58.2716 26.1312 58.2716C27.5128 58.2716 28.8495 58.0846 30.1161 57.7351" stroke="#C8C8C8" stroke-width="3" stroke-linecap="round" stroke-linejoin="round"/>
<path d="M58.2944 30.2613C64.7155 31.7479 69.4911 37.368 69.4911 44.0741C69.4911 51.9151 62.962 58.2716 54.9077 58.2716C53.5261 58.2716 52.1894 58.0846 50.9229 57.7351" stroke="#C8C8C8" stroke-width="3" stroke-linecap="round" stroke-linejoin="round"/>
<path d="M58.2144 29.8766C58.2144 20.4673 50.3793 12.8395 40.7144 12.8395C31.0494 12.8395 23.2144 20.4673 23.2144 29.8766" stroke="#C8C8C8" stroke-width="3" stroke-linecap="round" stroke-linejoin="round"/>
<path d="M32.9365 39.0264L40.7142 46.5983L48.4918 39.0264" stroke="#C8C8C8" stroke-width="3" stroke-linecap="round" stroke-linejoin="round"/>
<path d="M40.7144 26.7216V44.7548" stroke="#C8C8C8" stroke-width="3" stroke-linecap="round" stroke-linejoin="round"/>
<circle cx="59.1534" cy="59.2593" r="16.0494" fill="#FCE8E8"/>
<path d="M59.1534 75.3087C68.0172 75.3087 75.2028 68.1231 75.2028 59.2593C75.2028 50.3954 68.0172 43.2099 59.1534 43.2099C50.2896 43.2099 43.104 50.3954 43.104 59.2593C43.104 68.1231 50.2896 75.3087 59.1534 75.3087Z" stroke="#E1151C" stroke-width="3" stroke-linejoin="round"/>
<path d="M63.6927 54.7198L54.6138 63.7987" stroke="#E1151C" stroke-width="3" stroke-linecap="round" stroke-linejoin="round"/>
<path d="M54.6138 54.7198L63.6927 63.7987" stroke="#E1151C" stroke-width="3" stroke-linecap="round" stroke-linejoin="round"/>
</svg>
