<svg width="56" height="56" viewBox="0 0 56 56" fill="none" xmlns="http://www.w3.org/2000/svg">
<path d="M13.3333 15.9445V7.00001C13.3333 5.90226 14.1541 5.01236 15.1666 5.01236H40.8333C41.8458 5.01236 42.6666 5.90226 42.6666 7.00001V42.7778C42.6666 43.8756 41.8458 44.7654 40.8333 44.7654H15.1666C14.1541 44.7654 13.3333 43.8756 13.3333 42.7778V33.8333" stroke="#C8C8C8" stroke-width="2" stroke-linecap="round" stroke-linejoin="round"/>
<path d="M34.4167 15.9445H37.1667" stroke="#C8C8C8" stroke-width="2" stroke-linecap="round"/>
<path d="M31.6667 23.8951H37.1667" stroke="#C8C8C8" stroke-width="2" stroke-linecap="round"/>
<path d="M31.6667 31.8457H37.1667" stroke="#C8C8C8" stroke-width="2" stroke-linecap="round"/>
<path d="M24.1667 15.9445H11.6667C10.5622 15.9445 9.66675 16.8399 9.66675 17.9445V31.8333C9.66675 32.9379 10.5622 33.8333 11.6667 33.8333H24.1667C25.2713 33.8333 26.1667 32.9379 26.1667 31.8334V17.9445C26.1667 16.8399 25.2713 15.9445 24.1667 15.9445Z" stroke="#C8C8C8" stroke-width="2" stroke-linecap="round" stroke-linejoin="round"/>
<path d="M15.1667 21.9074L20.6667 27.8704" stroke="#C8C8C8" stroke-width="2" stroke-linecap="round" stroke-linejoin="round"/>
<path d="M20.6667 21.9074L15.1667 27.8704" stroke="#C8C8C8" stroke-width="2" stroke-linecap="round" stroke-linejoin="round"/>
<ellipse cx="39.4074" cy="41.4815" rx="11.2346" ry="11.2346" fill="#FCE8E8"/>
<path d="M39.4074 52.7161C45.6121 52.7161 50.642 47.6862 50.642 41.4815C50.642 35.2768 45.6121 30.2469 39.4074 30.2469C33.2027 30.2469 28.1729 35.2768 28.1729 41.4815C28.1729 47.6862 33.2027 52.7161 39.4074 52.7161Z" stroke="#E1151C" stroke-width="2" stroke-linejoin="round"/>
<path d="M42.585 38.3039L36.2297 44.6591" stroke="#E1151C" stroke-width="2" stroke-linecap="round" stroke-linejoin="round"/>
<path d="M36.23 38.3039L42.5852 44.6591" stroke="#E1151C" stroke-width="2" stroke-linecap="round" stroke-linejoin="round"/>
</svg>
