<svg width="80" height="80" viewBox="0 0 80 80" fill="none" xmlns="http://www.w3.org/2000/svg">
<path d="M67.6562 57.6249C67.6562 61.5082 64.5082 64.6562 60.625 64.6562H19.375C15.4918 64.6562 12.3438 61.5082 12.3438 57.6249V21.0624C12.3438 17.1792 15.4918 14.0312 19.375 14.0312H60.625C64.5082 14.0312 67.6562 17.1792 67.6562 21.0624V57.9062" stroke="#C8C8C8" stroke-width="3" stroke-miterlimit="10" stroke-linecap="round" stroke-linejoin="round"/>
<path d="M24.6484 9.34369V18.7187" stroke="#C8C8C8" stroke-width="3" stroke-miterlimit="10" stroke-linecap="round" stroke-linejoin="round"/>
<path d="M55.2344 18.7187V9.34369" stroke="#C8C8C8" stroke-width="3" stroke-miterlimit="10" stroke-linecap="round" stroke-linejoin="round"/>
<path d="M39.8828 9.34369V18.7187" stroke="#C8C8C8" stroke-width="3" stroke-miterlimit="10" stroke-linecap="round" stroke-linejoin="round"/>
<path d="M33.0859 37.5859H35.6641" stroke="#C8C8C8" stroke-width="3" stroke-miterlimit="10" stroke-linecap="round"/>
<path d="M21.8455 46.4921H24.4236" stroke="#C8C8C8" stroke-width="3" stroke-miterlimit="10" stroke-linecap="round"/>
<path d="M21.8455 37.5859H24.4236" stroke="#C8C8C8" stroke-width="3" stroke-miterlimit="10" stroke-linecap="round"/>
<path d="M44.3359 46.4921H46.9141" stroke="#C8C8C8" stroke-width="3" stroke-miterlimit="10" stroke-linecap="round"/>
<path d="M44.3359 37.5859H46.9141" stroke="#C8C8C8" stroke-width="3" stroke-miterlimit="10" stroke-linecap="round"/>
<path d="M33.0859 46.4921H35.6641" stroke="#C8C8C8" stroke-width="3" stroke-miterlimit="10" stroke-linecap="round"/>
<path d="M21.8455 55.3984H24.4236" stroke="#C8C8C8" stroke-width="3" stroke-miterlimit="10" stroke-linecap="round"/>
<path d="M44.3359 55.3984H46.9141" stroke="#C8C8C8" stroke-width="3" stroke-miterlimit="10" stroke-linecap="round"/>
<path d="M33.0859 55.3984H35.6641" stroke="#C8C8C8" stroke-width="3" stroke-miterlimit="10" stroke-linecap="round"/>
<path d="M55.5859 46.4921H58.1641" stroke="#C8C8C8" stroke-width="3" stroke-miterlimit="10" stroke-linecap="round"/>
<path d="M55.5859 37.5859H58.1641" stroke="#C8C8C8" stroke-width="3" stroke-miterlimit="10" stroke-linecap="round"/>
<path d="M12.3438 28.0937H67.6562" stroke="#C8C8C8" stroke-width="3" stroke-miterlimit="10" stroke-linecap="round" stroke-linejoin="round"/>
<circle cx="56.2965" cy="59.2593" r="16.0494" fill="#FCE8E8"/>
<path d="M56.2965 75.3087C65.1603 75.3087 72.3458 68.1231 72.3458 59.2593C72.3458 50.3954 65.1603 43.2099 56.2965 43.2099C47.4326 43.2099 40.2471 50.3954 40.2471 59.2593C40.2471 68.1231 47.4326 75.3087 56.2965 75.3087Z" stroke="#E1151C" stroke-width="3" stroke-linejoin="round"/>
<path d="M60.8357 54.7198L51.7568 63.7987" stroke="#E1151C" stroke-width="3" stroke-linecap="round" stroke-linejoin="round"/>
<path d="M51.7571 54.7198L60.836 63.7987" stroke="#E1151C" stroke-width="3" stroke-linecap="round" stroke-linejoin="round"/>
</svg>
