<svg width="80" height="80" viewBox="0 0 80 80" fill="none" xmlns="http://www.w3.org/2000/svg">
<path d="M11.1311 14.3827C11.1311 12.0304 12.9699 10.1235 15.2382 10.1235H48.0954C50.3638 10.1235 52.2025 12.0304 52.2025 14.3827V66.9136H15.2382C12.9699 66.9136 11.1311 65.0067 11.1311 62.6543V14.3827Z" stroke="#C8C8C8" stroke-width="3" stroke-linejoin="round"/>
<path d="M52.2024 38.5185C52.2024 36.9503 53.4282 35.679 54.9405 35.679H60.4167C61.9289 35.679 63.1548 36.9503 63.1548 38.5185V62.6543C63.1548 65.0067 61.316 66.9136 59.0476 66.9136H52.2024V38.5185Z" stroke="#C8C8C8" stroke-width="3" stroke-linejoin="round"/>
<path d="M19.3455 21.4815H30.2978" stroke="#C8C8C8" stroke-width="3" stroke-linecap="round" stroke-linejoin="round"/>
<path d="M19.3455 31.4198H35.774" stroke="#C8C8C8" stroke-width="3" stroke-linecap="round" stroke-linejoin="round"/>
<path d="M19.3455 41.0425H41.4023" stroke="#C8C8C8" stroke-width="3" stroke-linecap="round" stroke-linejoin="round"/>
<path d="M19.3455 51.1385H37.7515" stroke="#C8C8C8" stroke-width="3" stroke-linecap="round" stroke-linejoin="round"/>
<circle cx="56.2965" cy="59.2593" r="16.0494" fill="#FCE8E8"/>
<path d="M56.2965 75.3087C65.1603 75.3087 72.3458 68.1231 72.3458 59.2593C72.3458 50.3954 65.1603 43.2099 56.2965 43.2099C47.4326 43.2099 40.2471 50.3954 40.2471 59.2593C40.2471 68.1231 47.4326 75.3087 56.2965 75.3087Z" stroke="#E1151C" stroke-width="3" stroke-linejoin="round"/>
<path d="M60.8357 54.7198L51.7568 63.7987" stroke="#E1151C" stroke-width="3" stroke-linecap="round" stroke-linejoin="round"/>
<path d="M51.7571 54.7198L60.836 63.7987" stroke="#E1151C" stroke-width="3" stroke-linecap="round" stroke-linejoin="round"/>
</svg>
