<svg width="80" height="80" viewBox="0 0 80 80" fill="none" xmlns="http://www.w3.org/2000/svg">
<path d="M56.721 31.6404L52.5327 35.9261L37.1755 20.2118L41.3638 15.9261C43.458 13.7831 51.1366 10.2118 56.721 15.9261C62.3054 21.6404 58.8151 29.4974 56.721 31.6404Z" stroke="#C8C8C8" stroke-width="3" stroke-linecap="round" stroke-linejoin="round"/>
<path d="M63.7015 8.78302L56.7209 15.9259" stroke="#C8C8C8" stroke-width="3" stroke-linecap="round" stroke-linejoin="round"/>
<path d="M20.4223 37.3543L24.6106 33.0686L39.9678 48.7829L35.7795 53.0686C33.6853 55.2116 26.0067 58.783 20.4223 53.0686C14.8379 47.3543 18.3282 39.4973 20.4223 37.3543Z" stroke="#C8C8C8" stroke-width="3" stroke-linecap="round" stroke-linejoin="round"/>
<path d="M37.1755 45.9259L42.76 40.2116" stroke="#C8C8C8" stroke-width="3" stroke-linecap="round" stroke-linejoin="round"/>
<path d="M13.4419 60.2116L20.4224 53.0688" stroke="#C8C8C8" stroke-width="3" stroke-linecap="round" stroke-linejoin="round"/>
<path d="M27.4028 35.9259L32.9872 30.2116" stroke="#C8C8C8" stroke-width="3" stroke-linecap="round" stroke-linejoin="round"/>
<circle cx="56.2965" cy="59.2593" r="16.0494" fill="#FCE8E8"/>
<path d="M56.2965 75.3087C65.1603 75.3087 72.3458 68.1231 72.3458 59.2593C72.3458 50.3954 65.1603 43.2099 56.2965 43.2099C47.4326 43.2099 40.2471 50.3954 40.2471 59.2593C40.2471 68.1231 47.4326 75.3087 56.2965 75.3087Z" stroke="#E1151C" stroke-width="3" stroke-linejoin="round"/>
<path d="M60.8357 54.7198L51.7568 63.7987" stroke="#E1151C" stroke-width="3" stroke-linecap="round" stroke-linejoin="round"/>
<path d="M51.7571 54.7198L60.836 63.7987" stroke="#E1151C" stroke-width="3" stroke-linecap="round" stroke-linejoin="round"/>
</svg>
