<svg width="80" height="80" viewBox="0 0 80 80" fill="none" xmlns="http://www.w3.org/2000/svg">
<path d="M8.57129 27.0933C9.41243 26.2961 10.2787 25.5409 11.1676 24.8274C27.1957 11.9632 50.5457 12.7185 65.7141 27.0933" stroke="#C8C8C8" stroke-width="3" stroke-linecap="round" stroke-linejoin="round"/>
<path d="M57.1426 36.8557C46.0969 25.81 28.1883 25.81 17.1426 36.8557" stroke="#C8C8C8" stroke-width="3" stroke-linecap="round" stroke-linejoin="round"/>
<path d="M48.571 46.1624C42.2592 39.8506 32.0257 39.8506 25.7139 46.1624" stroke="#C8C8C8" stroke-width="3" stroke-linecap="round" stroke-linejoin="round"/>
<path d="M37.1426 51.5C38.2865 51.5 39.2138 52.4274 39.2139 53.5713C39.2139 54.7153 38.2866 55.6426 37.1426 55.6426C35.9986 55.6425 35.0713 54.7152 35.0713 53.5713C35.0714 52.4274 35.9987 51.5001 37.1426 51.5Z" fill="#C8C8C8" stroke="#C8C8C8" stroke-width="3"/>
<circle cx="56.2965" cy="59.2593" r="16.0494" fill="#FCE8E8"/>
<path d="M56.2965 75.3087C65.1603 75.3087 72.3458 68.1231 72.3458 59.2593C72.3458 50.3954 65.1603 43.2099 56.2965 43.2099C47.4326 43.2099 40.2471 50.3954 40.2471 59.2593C40.2471 68.1231 47.4326 75.3087 56.2965 75.3087Z" stroke="#E1151C" stroke-width="3" stroke-linejoin="round"/>
<path d="M60.8357 54.7198L51.7568 63.7987" stroke="#E1151C" stroke-width="3" stroke-linecap="round" stroke-linejoin="round"/>
<path d="M51.7568 54.7198L60.8357 63.7987" stroke="#E1151C" stroke-width="3" stroke-linecap="round" stroke-linejoin="round"/>
</svg>
