<svg width="80" height="80" viewBox="0 0 80 80" fill="none" xmlns="http://www.w3.org/2000/svg">
<path d="M20.0906 49.5405C14.8124 51.1826 11.5479 53.4511 11.5479 55.9567C11.5479 60.9682 24.6062 65.0308 40.7145 65.0308C56.8228 65.0308 69.8812 60.9682 69.8812 55.9567C69.8812 53.4511 66.6166 51.1826 61.3384 49.5405" stroke="#C8C8C8" stroke-width="3" stroke-linecap="round" stroke-linejoin="round"/>
<path d="M40.7144 52.9321C40.7144 52.9321 59.6728 40.0832 59.6728 25.2286C59.6728 14.6362 51.1848 6.04938 40.7144 6.04938C30.244 6.04938 21.7561 14.6362 21.7561 25.2286C21.7561 40.0832 40.7144 52.9321 40.7144 52.9321Z" stroke="#C8C8C8" stroke-width="3" stroke-linejoin="round"/>
<path d="M40.7145 33.2716C44.7416 33.2716 48.0062 29.8861 48.0062 25.7099C48.0062 21.5337 44.7416 18.1481 40.7145 18.1481C36.6875 18.1481 33.4229 21.5337 33.4229 25.7099C33.4229 29.8861 36.6875 33.2716 40.7145 33.2716Z" stroke="#C8C8C8" stroke-width="3" stroke-linejoin="round"/>
<circle cx="56.2965" cy="59.2593" r="16.0494" fill="#FCE8E8"/>
<path d="M56.2965 75.3087C65.1603 75.3087 72.3458 68.1231 72.3458 59.2593C72.3458 50.3954 65.1603 43.2099 56.2965 43.2099C47.4326 43.2099 40.2471 50.3954 40.2471 59.2593C40.2471 68.1231 47.4326 75.3087 56.2965 75.3087Z" stroke="#E1151C" stroke-width="3" stroke-linejoin="round"/>
<path d="M60.8357 54.7198L51.7568 63.7987" stroke="#E1151C" stroke-width="3" stroke-linecap="round" stroke-linejoin="round"/>
<path d="M51.7571 54.7198L60.836 63.7987" stroke="#E1151C" stroke-width="3" stroke-linecap="round" stroke-linejoin="round"/>
</svg>
