<svg width="56" height="56" viewBox="0 0 56 56" fill="none" xmlns="http://www.w3.org/2000/svg">
<path d="M15.9209 21.1829C11.4262 22.2236 8.08325 26.1576 8.08325 30.8519C8.08325 36.3406 12.6537 40.7901 18.2916 40.7901C19.2587 40.7901 20.1944 40.6593 21.081 40.4146" stroke="#C8C8C8" stroke-width="2" stroke-linecap="round" stroke-linejoin="round"/>
<path d="M40.8059 21.1829C45.3006 22.2236 48.6435 26.1576 48.6435 30.8519C48.6435 36.3406 44.0731 40.7901 38.4352 40.7901C37.468 40.7901 36.5323 40.6593 35.6458 40.4146" stroke="#C8C8C8" stroke-width="2" stroke-linecap="round" stroke-linejoin="round"/>
<path d="M40.75 20.9136C40.75 14.3271 35.2655 8.98767 28.5 8.98767C21.7345 8.98767 16.25 14.3271 16.25 20.9136" stroke="#C8C8C8" stroke-width="2" stroke-linecap="round" stroke-linejoin="round"/>
<path d="M23.0554 24.0054L28.4998 18.7051L33.9441 24.0054" stroke="#C8C8C8" stroke-width="2" stroke-linecap="round" stroke-linejoin="round"/>
<path d="M28.5 32.6188V19.9955" stroke="#C8C8C8" stroke-width="2" stroke-linecap="round" stroke-linejoin="round"/>
<circle cx="39.4074" cy="41.4815" r="11.2346" fill="#FCE8E8"/>
<path d="M39.4074 52.7161C45.6121 52.7161 50.642 47.6862 50.642 41.4815C50.642 35.2768 45.6121 30.2469 39.4074 30.2469C33.2027 30.2469 28.1729 35.2768 28.1729 41.4815C28.1729 47.6862 33.2027 52.7161 39.4074 52.7161Z" stroke="#E1151C" stroke-width="2" stroke-linejoin="round"/>
<path d="M42.585 38.3039L36.2297 44.6591" stroke="#E1151C" stroke-width="2" stroke-linecap="round" stroke-linejoin="round"/>
<path d="M36.23 38.3039L42.5852 44.6591" stroke="#E1151C" stroke-width="2" stroke-linecap="round" stroke-linejoin="round"/>
</svg>
