<svg width="56" height="56" viewBox="0 0 56 56" fill="none" xmlns="http://www.w3.org/2000/svg">
<path d="M10.7083 7.08643H43.2916" stroke="#C8C8C8" stroke-width="2" stroke-linecap="round" stroke-linejoin="round"/>
<path d="M10.7083 46.8395H43.2916" stroke="#C8C8C8" stroke-width="2" stroke-linecap="round" stroke-linejoin="round"/>
<path d="M14.5417 46.8395C17.0973 33.5829 21.2501 26.9574 27.0001 26.963C32.7501 26.9685 36.9028 33.594 39.4584 46.8395H14.5417Z" stroke="#C8C8C8" stroke-width="2" stroke-linejoin="round"/>
<path d="M39.4584 7.08643C36.9028 20.343 32.7501 26.9685 27.0001 26.963C21.2501 26.9574 17.0973 20.332 14.5417 7.08643H39.4584Z" stroke="#C8C8C8" stroke-width="2" stroke-linejoin="round"/>
<path d="M24.125 18.0185H29.875" stroke="#C8C8C8" stroke-width="2" stroke-linecap="round" stroke-linejoin="round"/>
<path d="M22.2083 40.8766H31.7916" stroke="#C8C8C8" stroke-width="2" stroke-linecap="round" stroke-linejoin="round"/>
<circle cx="39.4074" cy="41.4815" r="11.2346" fill="#FCE8E8"/>
<path d="M39.4074 52.7161C45.6121 52.7161 50.642 47.6862 50.642 41.4815C50.642 35.2768 45.6121 30.2469 39.4074 30.2469C33.2027 30.2469 28.1729 35.2768 28.1729 41.4815C28.1729 47.6862 33.2027 52.7161 39.4074 52.7161Z" stroke="#E1151C" stroke-width="2" stroke-linejoin="round"/>
<path d="M42.585 38.3039L36.2297 44.6591" stroke="#E1151C" stroke-width="2" stroke-linecap="round" stroke-linejoin="round"/>
<path d="M36.23 38.3039L42.5852 44.6591" stroke="#E1151C" stroke-width="2" stroke-linecap="round" stroke-linejoin="round"/>
</svg>
