<svg width="56" height="56" viewBox="0 0 56 56" fill="none" xmlns="http://www.w3.org/2000/svg">
<path d="M16.729 24.7736C16.729 19.3645 20.9393 14.9794 26.1328 14.9794C31.3264 14.9794 35.5367 19.3645 35.5367 24.7736V40.4444H16.729V24.7736Z" stroke="#C8C8C8" stroke-width="2" stroke-linejoin="round"/>
<path d="M26.1328 5.18518V8.12345" stroke="#C8C8C8" stroke-width="2" stroke-linecap="round" stroke-linejoin="round"/>
<path d="M37.3156 9.42435L35.5022 11.6752" stroke="#C8C8C8" stroke-width="2" stroke-linecap="round" stroke-linejoin="round"/>
<path d="M43.2652 20.1579L40.4868 20.6682" stroke="#C8C8C8" stroke-width="2" stroke-linecap="round" stroke-linejoin="round"/>
<path d="M9 20.158L11.7783 20.6682" stroke="#C8C8C8" stroke-width="2" stroke-linecap="round" stroke-linejoin="round"/>
<path d="M14.9502 9.42413L16.7636 11.675" stroke="#C8C8C8" stroke-width="2" stroke-linecap="round" stroke-linejoin="round"/>
<path d="M9.20581 40.4444H44" stroke="#C8C8C8" stroke-width="2" stroke-linecap="round" stroke-linejoin="round"/>
<circle cx="39.4074" cy="41.4815" r="11.2346" fill="#FCE8E8"/>
<path d="M39.4074 52.7161C45.6121 52.7161 50.642 47.6862 50.642 41.4815C50.642 35.2768 45.6121 30.2469 39.4074 30.2469C33.2027 30.2469 28.1729 35.2768 28.1729 41.4815C28.1729 47.6862 33.2027 52.7161 39.4074 52.7161Z" stroke="#E1151C" stroke-width="2" stroke-linejoin="round"/>
<path d="M42.585 38.3039L36.2297 44.6591" stroke="#E1151C" stroke-width="2" stroke-linecap="round" stroke-linejoin="round"/>
<path d="M36.23 38.3039L42.5852 44.6591" stroke="#E1151C" stroke-width="2" stroke-linecap="round" stroke-linejoin="round"/>
</svg>
