<svg width="56" height="56" viewBox="0 0 56 56" fill="none" xmlns="http://www.w3.org/2000/svg">
<path d="M15.9209 21.1829C11.4262 22.2236 8.08325 26.1576 8.08325 30.8519C8.08325 36.3406 12.6537 40.7901 18.2916 40.7901C19.2587 40.7901 20.1944 40.6593 21.081 40.4146" stroke="#C8C8C8" stroke-width="2" stroke-linecap="round" stroke-linejoin="round"/>
<path d="M40.8059 21.1829C45.3006 22.2236 48.6435 26.1576 48.6435 30.8519C48.6435 36.3406 44.0731 40.7901 38.4352 40.7901C37.468 40.7901 36.5323 40.6593 35.6458 40.4146" stroke="#C8C8C8" stroke-width="2" stroke-linecap="round" stroke-linejoin="round"/>
<path d="M40.75 20.9136C40.75 14.3271 35.2655 8.98767 28.5 8.98767C21.7345 8.98767 16.25 14.3271 16.25 20.9136" stroke="#C8C8C8" stroke-width="2" stroke-linecap="round" stroke-linejoin="round"/>
<path d="M23.0554 27.3185L28.4998 32.6188L33.9441 27.3185" stroke="#C8C8C8" stroke-width="2" stroke-linecap="round" stroke-linejoin="round"/>
<path d="M28.5 18.7051V31.3284" stroke="#C8C8C8" stroke-width="2" stroke-linecap="round" stroke-linejoin="round"/>
<circle cx="41.4072" cy="41.4815" r="11.2346" fill="#FCE8E8"/>
<path d="M41.4072 52.7161C47.6119 52.7161 52.6417 47.6862 52.6417 41.4815C52.6417 35.2768 47.6119 30.2469 41.4072 30.2469C35.2025 30.2469 30.1726 35.2768 30.1726 41.4815C30.1726 47.6862 35.2025 52.7161 41.4072 52.7161Z" stroke="#E1151C" stroke-width="2" stroke-linejoin="round"/>
<path d="M44.5847 38.3039L38.2295 44.6591" stroke="#E1151C" stroke-width="2" stroke-linecap="round" stroke-linejoin="round"/>
<path d="M38.2297 38.3039L44.585 44.6591" stroke="#E1151C" stroke-width="2" stroke-linecap="round" stroke-linejoin="round"/>
</svg>
