<svg width="56" height="56" viewBox="0 0 56 56" fill="none" xmlns="http://www.w3.org/2000/svg">
<path d="M41.0968 6.14819H11.5914C10.4275 6.14819 9.48389 7.07679 9.48389 8.22227V45.5556C9.48389 46.7011 10.4275 47.6297 11.5914 47.6297H41.0968C42.2608 47.6297 43.2043 46.7011 43.2043 45.5556V8.22227C43.2043 7.07679 42.2608 6.14819 41.0968 6.14819Z" stroke="#C8C8C8" stroke-width="2" stroke-linecap="round" stroke-linejoin="round"/>
<path d="M17.9141 33.1111H32.6668" stroke="#C8C8C8" stroke-width="2" stroke-linecap="round" stroke-linejoin="round"/>
<path d="M17.9141 39.3334H25.2904" stroke="#C8C8C8" stroke-width="2" stroke-linecap="round" stroke-linejoin="round"/>
<path d="M32.6668 14.4445H17.9141V24.8149H32.6668V14.4445Z" stroke="#C8C8C8" stroke-width="2" stroke-linecap="round" stroke-linejoin="round"/>
<path d="M25.1775 48.3334L37.0323 28.8889L48.8872 48.3334H25.1775Z" fill="white"/>
<path fill-rule="evenodd" clip-rule="evenodd" d="M38.7562 30.708C37.9829 29.3935 36.0819 29.3935 35.3086 30.708L26.3862 45.8748C25.6019 47.208 26.5632 48.8889 28.11 48.8889H45.9548C47.5016 48.8889 48.4629 47.208 47.6786 45.8748L38.7562 30.708Z" stroke="#919191" stroke-width="2" stroke-linejoin="round"/>
<path d="M37.0322 44.4445V45" stroke="#5E5E5E" stroke-width="2" stroke-linecap="round"/>
<path d="M37.0322 35.5558L37.0369 41.1111" stroke="#5E5E5E" stroke-width="2" stroke-linecap="round"/>
</svg>
