<svg width="80" height="80" viewBox="0 0 80 80" fill="none" xmlns="http://www.w3.org/2000/svg">
<path d="M20.0906 49.5405C14.8124 51.1826 11.5479 53.4511 11.5479 55.9567C11.5479 60.9682 24.6062 65.0308 40.7145 65.0308C56.8228 65.0308 69.8812 60.9682 69.8812 55.9567C69.8812 53.4511 66.6166 51.1826 61.3384 49.5405" stroke="#C8C8C8" stroke-width="2.85714" stroke-linecap="round" stroke-linejoin="round"/>
<path d="M40.7144 52.9321C40.7144 52.9321 59.6728 40.0832 59.6728 25.2286C59.6728 14.6362 51.1848 6.04938 40.7144 6.04938C30.244 6.04938 21.7561 14.6362 21.7561 25.2286C21.7561 40.0832 40.7144 52.9321 40.7144 52.9321Z" stroke="#C8C8C8" stroke-width="2.85714" stroke-linejoin="round"/>
<path d="M40.7145 33.2716C44.7416 33.2716 48.0062 29.8861 48.0062 25.7099C48.0062 21.5337 44.7416 18.1481 40.7145 18.1481C36.6875 18.1481 33.4229 21.5337 33.4229 25.7099C33.4229 29.8861 36.6875 33.2716 40.7145 33.2716Z" stroke="#C8C8C8" stroke-width="2.85714" stroke-linejoin="round"/>
<path d="M41.2673 69.0476L58.2028 41.2698L75.1383 69.0476H41.2673Z" fill="white"/>
<path fill-rule="evenodd" clip-rule="evenodd" d="M60.6652 43.8686C59.5605 41.9908 56.8448 41.9908 55.74 43.8686L42.9938 65.5354C41.8733 67.4401 43.2466 69.8413 45.4564 69.8413H70.9489C73.1587 69.8413 74.532 67.4401 73.4115 65.5354L60.6652 43.8686Z" stroke="#919191" stroke-width="2.85714" stroke-linejoin="round"/>
<path d="M58.2026 63.4921V64.2857" stroke="#5E5E5E" stroke-width="2.85714" stroke-linecap="round"/>
<path d="M58.2026 50.7941L58.2096 58.7302" stroke="#5E5E5E" stroke-width="2.85714" stroke-linecap="round"/>
</svg>
