<svg width="80" height="80" viewBox="0 0 80 80" fill="none" xmlns="http://www.w3.org/2000/svg">
<path d="M56.721 31.6404L52.5327 35.9261L37.1755 20.2118L41.3638 15.9261C43.458 13.7831 51.1366 10.2118 56.721 15.9261C62.3054 21.6404 58.8151 29.4974 56.721 31.6404Z" stroke="#C8C8C8" stroke-width="3" stroke-linecap="round" stroke-linejoin="round"/>
<path d="M63.7015 8.78302L56.7209 15.9259" stroke="#C8C8C8" stroke-width="3" stroke-linecap="round" stroke-linejoin="round"/>
<path d="M20.4223 37.3543L24.6106 33.0686L39.9678 48.7829L35.7795 53.0686C33.6853 55.2116 26.0067 58.783 20.4223 53.0686C14.8379 47.3543 18.3282 39.4973 20.4223 37.3543Z" stroke="#C8C8C8" stroke-width="3" stroke-linecap="round" stroke-linejoin="round"/>
<path d="M37.1755 45.9259L42.76 40.2116" stroke="#C8C8C8" stroke-width="3" stroke-linecap="round" stroke-linejoin="round"/>
<path d="M13.4419 60.2116L20.4224 53.0688" stroke="#C8C8C8" stroke-width="3" stroke-linecap="round" stroke-linejoin="round"/>
<path d="M27.4028 35.9259L32.9872 30.2116" stroke="#C8C8C8" stroke-width="3" stroke-linecap="round" stroke-linejoin="round"/>
<path d="M37.2581 67.619L54.1935 39.8412L71.129 67.619H37.2581Z" fill="white"/>
<path fill-rule="evenodd" clip-rule="evenodd" d="M56.656 42.4401C55.5512 40.5622 52.8355 40.5622 51.7307 42.4401L38.9845 64.1068C37.864 66.0115 39.2373 68.4127 41.4471 68.4127H66.9396C69.1494 68.4127 70.5227 66.0115 69.4022 64.1068L56.656 42.4401Z" stroke="#919191" stroke-width="3" stroke-linejoin="round"/>
<path d="M54.1934 62.0635V62.8572" stroke="#5E5E5E" stroke-width="3" stroke-linecap="round"/>
<path d="M54.1934 49.3655L54.2003 57.3016" stroke="#5E5E5E" stroke-width="3" stroke-linecap="round"/>
</svg>
