<svg width="56" height="56" viewBox="0 0 56 56" fill="none" xmlns="http://www.w3.org/2000/svg">
<path d="M16.445 12.0555C14.7842 12.0555 13.847 13.9627 14.8618 15.2775L24.8583 28.2296C25.1285 28.5797 25.275 29.0094 25.275 29.4516V40.1334C25.275 40.864 25.6733 41.5364 26.3141 41.8874L31.725 44.8518V29.4516C31.725 29.0094 31.8715 28.5797 32.1417 28.2296L42.1382 15.2775C43.153 13.9627 42.2158 12.0555 40.555 12.0555H16.445Z" stroke="#C8C8C8" stroke-width="2" stroke-linejoin="round"/>
<path d="M26.0808 47.3334L37.9357 27.8889L49.7905 47.3334H26.0808Z" fill="white"/>
<path fill-rule="evenodd" clip-rule="evenodd" d="M39.6595 29.708C38.8862 28.3935 36.9852 28.3935 36.2119 29.708L27.2895 44.8748C26.5052 46.208 27.4665 47.8889 29.0133 47.8889H46.8581C48.4049 47.8889 49.3663 46.208 48.5819 44.8748L39.6595 29.708Z" stroke="#919191" stroke-width="2" stroke-linejoin="round"/>
<path d="M37.9355 43.4445V44" stroke="#5E5E5E" stroke-width="2" stroke-linecap="round"/>
<path d="M37.9355 34.5558L37.9404 40.1111" stroke="#5E5E5E" stroke-width="2" stroke-linecap="round"/>
</svg>
