<svg width="56" height="56" viewBox="0 0 56 56" fill="none" xmlns="http://www.w3.org/2000/svg">
<path d="M44.1251 5.8241H8.87508C7.79352 5.8241 6.91675 6.70087 6.91675 7.78243V43.0324C6.91675 44.114 7.79352 44.9908 8.87508 44.9908H44.1251C45.2066 44.9908 46.0834 44.114 46.0834 43.0324V7.78243C46.0834 6.70087 45.2066 5.8241 44.1251 5.8241Z" stroke="#C8C8C8" stroke-width="2" stroke-linecap="round" stroke-linejoin="round"/>
<path d="M6.91675 15.6157H46.0834" stroke="#C8C8C8" stroke-width="2" stroke-linecap="round" stroke-linejoin="round"/>
<path d="M46.0833 12.6782V24.4282" stroke="#C8C8C8" stroke-width="2" stroke-linecap="round" stroke-linejoin="round"/>
<path d="M14.75 23.4491H18.6667" stroke="#C8C8C8" stroke-width="2" stroke-linecap="round" stroke-linejoin="round"/>
<path d="M24.5417 23.4491H28.4584" stroke="#C8C8C8" stroke-width="2" stroke-linecap="round" stroke-linejoin="round"/>
<path d="M34.3333 23.4491H38.2499" stroke="#C8C8C8" stroke-width="2" stroke-linecap="round" stroke-linejoin="round"/>
<path d="M14.75 30.3032H18.6667" stroke="#C8C8C8" stroke-width="2" stroke-linecap="round" stroke-linejoin="round"/>
<path d="M24.5417 30.3032H28.4584" stroke="#C8C8C8" stroke-width="2" stroke-linecap="round" stroke-linejoin="round"/>
<path d="M34.3333 30.3032H38.2499" stroke="#C8C8C8" stroke-width="2" stroke-linecap="round" stroke-linejoin="round"/>
<path d="M14.75 37.1574H18.6667" stroke="#C8C8C8" stroke-width="2" stroke-linecap="round" stroke-linejoin="round"/>
<path d="M24.5417 37.1574H28.4584" stroke="#C8C8C8" stroke-width="2" stroke-linecap="round" stroke-linejoin="round"/>
<path d="M34.3333 37.1574H38.2499" stroke="#C8C8C8" stroke-width="2" stroke-linecap="round" stroke-linejoin="round"/>
<path d="M6.91675 12.6782V24.4282" stroke="#C8C8C8" stroke-width="2" stroke-linecap="round" stroke-linejoin="round"/>
<path d="M27.8872 47.3334L39.742 27.8889L51.5969 47.3334H27.8872Z" fill="white"/>
<path fill-rule="evenodd" clip-rule="evenodd" d="M41.4659 29.708C40.6926 28.3935 38.7916 28.3935 38.0183 29.708L29.0959 44.8748C28.3116 46.208 29.2729 47.8889 30.8197 47.8889H48.6645C50.2113 47.8889 51.1727 46.208 50.3883 44.8748L41.4659 29.708Z" stroke="#919191" stroke-width="2" stroke-linejoin="round"/>
<path d="M39.7419 43.4445V44" stroke="#5E5E5E" stroke-width="2" stroke-linecap="round"/>
<path d="M39.7419 34.5558L39.7468 40.1111" stroke="#5E5E5E" stroke-width="2" stroke-linecap="round"/>
</svg>
