<svg width="80" height="80" viewBox="0 0 80 80" fill="none" xmlns="http://www.w3.org/2000/svg">
<path d="M17.1431 66.9136V10.1235H50.0002L62.8574 25.0309V66.9136H17.1431Z" stroke="#C8C8C8" stroke-width="2.85714" stroke-linecap="round" stroke-linejoin="round"/>
<path d="M35.7145 44.1975H27.1431V54.1358H35.7145V44.1975Z" stroke="#C8C8C8" stroke-width="2.85714" stroke-linecap="round" stroke-linejoin="round"/>
<path d="M25.7144 54.1358H54.2858" stroke="#C8C8C8" stroke-width="2.85714" stroke-linecap="round" stroke-linejoin="round"/>
<path d="M44.2858 37.0988H35.7144V54.1358H44.2858V37.0988Z" stroke="#C8C8C8" stroke-width="2.85714" stroke-linecap="round" stroke-linejoin="round"/>
<path d="M52.8573 30H44.2859V54.1358H52.8573V30Z" stroke="#C8C8C8" stroke-width="2.85714" stroke-linecap="round" stroke-linejoin="round"/>
<path d="M39.8389 67.619L56.7744 39.8412L73.7098 67.619H39.8389Z" fill="white"/>
<path fill-rule="evenodd" clip-rule="evenodd" d="M59.2368 42.4401C58.132 40.5622 55.4163 40.5622 54.3115 42.4401L41.5653 64.1068C40.4448 66.0115 41.8181 68.4127 44.0279 68.4127H69.5204C71.7302 68.4127 73.1035 66.0115 71.983 64.1068L59.2368 42.4401Z" stroke="#919191" stroke-width="2.85714" stroke-linejoin="round"/>
<path d="M56.7742 62.0635V62.8572" stroke="#5E5E5E" stroke-width="2.85714" stroke-linecap="round"/>
<path d="M56.7742 49.3655L56.7811 57.3016" stroke="#5E5E5E" stroke-width="2.85714" stroke-linecap="round"/>
</svg>
