<svg width="56" height="56" viewBox="0 0 56 56" fill="none" xmlns="http://www.w3.org/2000/svg">
<path d="M7.42078 45.62C7.42078 46.0787 7.80466 46.4505 8.27823 46.4505L47.7192 46.4506C48.1928 46.4506 48.5767 46.0788 48.5767 45.6202V44.6284C48.5964 44.3295 48.6365 42.8377 47.6505 41.1886C47.0286 40.1488 46.1262 39.2505 44.9681 38.5187C43.5671 37.6334 41.785 36.992 39.6293 36.6058C39.6134 36.6037 38.0151 36.3924 36.3776 35.9755C33.5262 35.2492 33.2769 34.6065 33.2753 34.6002C33.2585 34.5367 33.2342 34.4757 33.2031 34.4183C33.1798 34.2984 33.1222 33.8472 33.2324 32.6382C33.5121 29.5674 35.1639 27.7526 36.4912 26.2945C36.9098 25.8347 37.3052 25.4003 37.6097 24.9743C38.923 23.1368 39.0449 21.0474 39.0504 20.9179C39.0504 20.6555 39.0202 20.4398 38.9555 20.2398C38.8266 19.8397 38.584 19.5904 38.4069 19.4084L38.4057 19.4071C38.3611 19.3613 38.3189 19.3178 38.2845 19.278C38.2714 19.2628 38.2365 19.2225 38.2682 19.0156C38.3848 18.2541 38.4548 17.6166 38.4884 17.0091C38.5482 15.927 38.5949 14.3085 38.3149 12.7334C38.2804 12.4644 38.221 12.1803 38.1286 11.8419C37.8328 10.7573 37.3577 9.82994 36.6975 9.06462C36.584 8.94145 33.8237 6.04161 25.8105 5.44662C24.7024 5.36436 23.6071 5.40868 22.5288 5.46363C22.2689 5.47644 21.9131 5.49403 21.58 5.58007C20.7527 5.79377 20.5319 6.31668 20.474 6.60933C20.3779 7.09408 20.5468 7.47116 20.6584 7.72073C20.6747 7.75691 20.6947 7.80169 20.6597 7.91819C20.4737 8.20543 20.1811 8.4644 19.8828 8.70975C19.7965 8.78283 17.7872 10.5105 17.6767 12.7673C17.3788 14.4837 17.4013 17.158 17.7536 19.0063C17.7741 19.1084 17.8043 19.2595 17.7552 19.3616C17.3764 19.7001 16.9469 20.0839 16.948 20.9594C16.9526 21.0474 17.0745 23.1368 18.3879 24.9743C18.6921 25.4 19.0871 25.834 19.5053 26.2935L19.5063 26.2945C20.8336 27.7526 22.4854 29.5674 22.7652 32.638C22.8753 33.8471 22.8176 34.2984 22.7943 34.4182C22.7633 34.4755 22.739 34.5366 22.7223 34.6001C22.7206 34.6064 22.4723 35.2471 19.6337 35.9718C17.9962 36.39 16.384 36.6036 16.3359 36.6105C14.2411 36.9631 12.4698 37.5886 11.0714 38.4692C9.91723 39.1961 9.01309 40.0961 8.38405 41.1441C7.37902 42.8187 7.40619 44.3438 7.42078 44.6222V45.62Z" stroke="#C8C8C8" stroke-width="2" stroke-linejoin="round"/>
<path d="M29.3496 48.4001L41.2044 28.9556L53.0593 48.4001H29.3496Z" fill="white"/>
<path fill-rule="evenodd" clip-rule="evenodd" d="M42.9283 30.7747C42.155 29.4602 40.254 29.4602 39.4807 30.7747L30.5583 45.9415C29.774 47.2748 30.7353 48.9556 32.2821 48.9556H50.1269C51.6737 48.9556 52.6351 47.2748 51.8507 45.9415L42.9283 30.7747Z" stroke="#919191" stroke-width="2" stroke-linejoin="round"/>
<path d="M41.2043 44.5112V45.0667" stroke="#5E5E5E" stroke-width="2" stroke-linecap="round"/>
<path d="M41.2043 35.6226L41.2092 41.1778" stroke="#5E5E5E" stroke-width="2" stroke-linecap="round"/>
</svg>
