<svg width="56" height="56" viewBox="0 0 56 56" fill="none" xmlns="http://www.w3.org/2000/svg">
<path d="M12 46.8395V7.08636H35L44 17.5215V46.8395H12Z" stroke="#C8C8C8" stroke-width="2" stroke-linecap="round" stroke-linejoin="round"/>
<path d="M25 30.9382H19V37.895H25V30.9382Z" stroke="#C8C8C8" stroke-width="2" stroke-linecap="round" stroke-linejoin="round"/>
<path d="M18 37.895H38" stroke="#C8C8C8" stroke-width="2" stroke-linecap="round" stroke-linejoin="round"/>
<path d="M31 25.9691H25V37.895H31V25.9691Z" stroke="#C8C8C8" stroke-width="2" stroke-linecap="round" stroke-linejoin="round"/>
<path d="M37 21H31V37.8951H37V21Z" stroke="#C8C8C8" stroke-width="2" stroke-linecap="round" stroke-linejoin="round"/>
<path d="M27.8872 47.3334L39.742 27.8889L51.5969 47.3334H27.8872Z" fill="white"/>
<path fill-rule="evenodd" clip-rule="evenodd" d="M41.4659 29.708C40.6926 28.3935 38.7916 28.3935 38.0183 29.708L29.0959 44.8748C28.3116 46.208 29.2729 47.8889 30.8197 47.8889H48.6645C50.2113 47.8889 51.1727 46.208 50.3883 44.8748L41.4659 29.708Z" stroke="#919191" stroke-width="2" stroke-linejoin="round"/>
<path d="M39.7419 43.4445V44" stroke="#5E5E5E" stroke-width="2" stroke-linecap="round"/>
<path d="M39.7419 34.5558L39.7468 40.1111" stroke="#5E5E5E" stroke-width="2" stroke-linecap="round"/>
</svg>
