<svg width="80" height="80" viewBox="0 0 80 80" fill="none" xmlns="http://www.w3.org/2000/svg">
<path d="M15.4761 15.3086V23.9506H24.1798" stroke="#C8C8C8" stroke-width="3" stroke-linecap="round" stroke-linejoin="round"/>
<path d="M12.9893 36.7284C12.9893 50.331 23.5662 61.358 36.6136 61.358C49.661 61.358 60.2379 50.331 60.2379 36.7284C60.2379 23.1258 49.661 12.0988 36.6136 12.0988C27.8702 12.0988 20.2361 17.0507 16.1511 24.4112" stroke="#C8C8C8" stroke-width="3" stroke-linecap="round" stroke-linejoin="round"/>
<path d="M36.6152 24.074L36.6138 38.5464L46.5609 48.7654" stroke="#C8C8C8" stroke-width="3" stroke-linecap="round" stroke-linejoin="round"/>
<path d="M39.8389 67.619L56.7744 39.8412L73.7098 67.619H39.8389Z" fill="white"/>
<path fill-rule="evenodd" clip-rule="evenodd" d="M59.237 42.4401C58.1323 40.5622 55.4165 40.5622 54.3118 42.4401L41.5655 64.1068C40.4451 66.0115 41.8184 68.4127 44.0282 68.4127H69.5206C71.7305 68.4127 73.1038 66.0115 71.9833 64.1068L59.237 42.4401Z" stroke="#919191" stroke-width="3" stroke-linejoin="round"/>
<path d="M56.7742 62.0635V62.8572" stroke="#5E5E5E" stroke-width="3" stroke-linecap="round"/>
<path d="M56.7742 49.3655L56.7811 57.3016" stroke="#5E5E5E" stroke-width="3" stroke-linecap="round"/>
</svg>
