<svg width="80" height="80" viewBox="0 0 80 80" fill="none" xmlns="http://www.w3.org/2000/svg">
<g clip-path="url(#clip0_85077_142427)">
<path d="M15.4908 53.0539L14.2597 52.1968H14.2597L15.4908 53.0539ZM19.1244 41.812L17.6245 41.7952L17.6244 41.8036V41.812H19.1244ZM19.2006 35.0151L20.7005 35.0319L20.7006 35.0235V35.0151H19.2006ZM64.841 53.1084L66.0885 52.2756V52.2756L64.841 53.1084ZM61.3441 41.812L59.8442 41.7943L59.8441 41.8032V41.812H61.3441ZM61.4203 35.3519L62.9202 35.3696L62.9203 35.3608V35.3519H61.4203ZM32.758 64.1326C32.1096 63.6169 31.166 63.7245 30.6504 64.3729C30.1347 65.0213 30.2424 65.965 30.8908 66.4806L31.8244 65.3066L32.758 64.1326ZM49.4215 66.4806C50.0699 65.965 50.1776 65.0213 49.6619 64.3729C49.1463 63.7245 48.2027 63.6169 47.5543 64.1326L48.4879 65.3066L49.4215 66.4806ZM12.0837 18.8652C11.7894 19.6396 12.1785 20.5059 12.9529 20.8003C13.7273 21.0946 14.5936 20.7055 14.888 19.9311L13.4858 19.3981L12.0837 18.8652ZM23.6143 9.4383C24.3346 9.02906 24.5868 8.1134 24.1775 7.39311C23.7683 6.67282 22.8526 6.42066 22.1323 6.82989L22.8733 8.13409L23.6143 9.4383ZM58.1208 6.86849C57.405 6.45141 56.4867 6.69356 56.0696 7.40934C55.6525 8.12512 55.8947 9.04348 56.6104 9.46055L57.3656 8.16452L58.1208 6.86849ZM65.4116 19.886C65.698 20.6634 66.5603 21.0614 67.3377 20.775C68.115 20.4886 68.5131 19.6263 68.2267 18.849L66.8192 19.3675L65.4116 19.886ZM15.4908 53.0539L16.7218 53.9109C18.6954 51.0761 20.6244 46.887 20.6244 41.812H19.1244H17.6244C17.6244 46.1185 15.9841 49.72 14.2597 52.1968L15.4908 53.0539ZM19.1244 41.812L20.6243 41.8288L20.7005 35.0319L19.2006 35.0151L17.7007 34.9983L17.6245 41.7952L19.1244 41.812ZM64.841 53.1084L66.0885 52.2756C64.4348 49.7985 62.8441 46.1674 62.8441 41.812H61.3441H59.8441C59.8441 46.9026 61.6995 51.1045 63.5934 53.9413L64.841 53.1084ZM61.3441 41.812L62.844 41.8297L62.9202 35.3696L61.4203 35.3519L59.9204 35.3342L59.8442 41.7943L61.3441 41.812ZM61.4203 35.3519H62.9203C62.9203 21.835 52.8489 10.6496 40.1561 10.6496V12.1496V13.6496C50.9511 13.6496 59.9203 23.2402 59.9203 35.3519H61.4203ZM63.5684 56.2585V57.7585C65.0791 57.7585 66.0046 56.6141 66.3772 55.6589C66.758 54.6828 66.8099 53.3562 66.0885 52.2756L64.841 53.1084L63.5934 53.9413C63.6106 53.9671 63.6436 54.0357 63.6503 54.163C63.657 54.2912 63.6337 54.437 63.5824 54.5686C63.5298 54.7034 63.4691 54.7704 63.448 54.7884C63.4383 54.7968 63.4848 54.7585 63.5684 54.7585V56.2585ZM19.2006 35.0151H20.7006C20.7006 23.0894 29.5316 13.6496 40.1561 13.6496V12.1496V10.6496C27.6338 10.6496 17.7006 21.6842 17.7006 35.0151H19.2006ZM16.7469 56.2585V54.7585C16.8338 54.7585 16.881 54.7989 16.8692 54.7886C16.8458 54.7682 16.7826 54.6963 16.729 54.5546C16.6767 54.4163 16.6542 54.2645 16.6626 54.1326C16.6709 54.0014 16.7058 53.9339 16.7218 53.9109L15.4908 53.0539L14.2597 52.1968C13.5059 53.2797 13.5496 54.629 13.9231 55.6162C14.2878 56.5802 15.2129 57.7585 16.7469 57.7585V56.2585ZM63.5684 56.2585V54.7585H16.7469V56.2585V57.7585H63.5684V56.2585ZM40.1561 68.1341V66.6341C37.289 66.6341 34.6995 65.6765 32.758 64.1326L31.8244 65.3066L30.8908 66.4806C33.3714 68.4533 36.6215 69.6341 40.1561 69.6341V68.1341ZM48.4879 65.3066L47.5543 64.1326C45.6128 65.6765 43.0233 66.6341 40.1561 66.6341V68.1341V69.6341C43.6908 69.6341 46.9409 68.4533 49.4215 66.4806L48.4879 65.3066ZM13.4858 19.3981L14.888 19.9311C16.6024 15.4205 19.6601 11.6849 23.6143 9.4383L22.8733 8.13409L22.1323 6.82989C17.5099 9.45613 14.0198 13.7715 12.0837 18.8652L13.4858 19.3981ZM57.3656 8.16452L56.6104 9.46055C60.6262 11.8005 63.7776 15.4503 65.4116 19.886L66.8192 19.3675L68.2267 18.849C66.3429 13.7355 62.7169 9.54657 58.1208 6.86849L57.3656 8.16452Z" fill="#C8C8C8"/>
<path d="M39.4194 74.3333L56.3549 46.5555L73.2904 74.3333H39.4194Z" fill="white"/>
<path fill-rule="evenodd" clip-rule="evenodd" d="M58.8173 49.1544C57.7126 47.2765 54.9969 47.2765 53.8921 49.1544L41.1459 70.8211C40.0254 72.7258 41.3987 75.127 43.6085 75.127H69.101C71.3108 75.127 72.6841 72.7258 71.5636 70.8211L58.8173 49.1544Z" stroke="#919191" stroke-width="3" stroke-linejoin="round"/>
<path d="M56.355 68.7778V69.5714" stroke="#5E5E5E" stroke-width="3" stroke-linecap="round"/>
<path d="M56.355 56.0798L56.3619 64.0159" stroke="#5E5E5E" stroke-width="3" stroke-linecap="round"/>
</g>
<defs>
<clipPath id="clip0_85077_142427">
<rect width="80" height="80" fill="white"/>
</clipPath>
</defs>
</svg>
