<svg width="56" height="56" viewBox="0 0 56 56" fill="none" xmlns="http://www.w3.org/2000/svg">
<path d="M14.5834 46.8395H41.4167C42.4753 46.8395 43.3334 45.9496 43.3334 44.8518V17.0246H33.7501V7.08636H14.5834C13.5249 7.08636 12.6667 7.97627 12.6667 9.07402V44.8518C12.6667 45.9496 13.5249 46.8395 14.5834 46.8395Z" stroke="#C8C8C8" stroke-width="2" stroke-linecap="round" stroke-linejoin="round"/>
<path d="M33.75 7.08636L43.3333 17.0246" stroke="#C8C8C8" stroke-width="2" stroke-linecap="round" stroke-linejoin="round"/>
<path d="M25.2314 30.0548C28.4071 30.0548 30.9814 27.3851 30.9814 24.0919C30.9814 20.7986 28.4071 18.1289 25.2314 18.1289C22.0558 18.1289 19.4814 20.7986 19.4814 24.0919C19.4814 27.3851 22.0558 30.0548 25.2314 30.0548Z" stroke="#C8C8C8" stroke-width="2"/>
<path d="M30.0232 28.0672L34.8149 32.0425" stroke="#C8C8C8" stroke-width="2" stroke-linecap="round" stroke-linejoin="round"/>
<path d="M28.9241 47.3334L40.7789 27.8889L52.6337 47.3334H28.9241Z" fill="white"/>
<path fill-rule="evenodd" clip-rule="evenodd" d="M42.5028 29.708C41.7295 28.3935 39.8285 28.3935 39.0551 29.708L30.1328 44.8748C29.3484 46.208 30.3097 47.8889 31.8566 47.8889H49.7013C51.2482 47.8889 52.2095 46.208 51.4252 44.8748L42.5028 29.708Z" stroke="#919191" stroke-width="2" stroke-linejoin="round"/>
<path d="M40.7788 43.4445V44" stroke="#5E5E5E" stroke-width="2" stroke-linecap="round"/>
<path d="M40.7788 34.5558L40.7837 40.1111" stroke="#5E5E5E" stroke-width="2" stroke-linecap="round"/>
</svg>
