<svg width="56" height="56" viewBox="0 0 56 56" fill="none" xmlns="http://www.w3.org/2000/svg">
<path d="M14.0632 34.6783C10.3685 35.8278 8.08325 37.4158 8.08325 39.1697C8.08325 42.6778 17.2241 45.5216 28.4999 45.5216C39.7757 45.5216 48.9166 42.6778 48.9166 39.1697C48.9166 37.4158 46.6314 35.8278 42.9366 34.6783" stroke="#C8C8C8" stroke-width="2" stroke-linecap="round" stroke-linejoin="round"/>
<path d="M28.5001 37.0525C28.5001 37.0525 41.7709 28.0582 41.7709 17.66C41.7709 10.2454 35.8294 4.23456 28.5001 4.23456C21.1708 4.23456 15.2292 10.2454 15.2292 17.66C15.2292 28.0582 28.5001 37.0525 28.5001 37.0525Z" stroke="#C8C8C8" stroke-width="2" stroke-linejoin="round"/>
<path d="M28.4999 23.2901C31.3188 23.2901 33.6041 20.9202 33.6041 17.9969C33.6041 15.0736 31.3188 12.7037 28.4999 12.7037C25.681 12.7037 23.3958 15.0736 23.3958 17.9969C23.3958 20.9202 25.681 23.2901 28.4999 23.2901Z" stroke="#C8C8C8" stroke-width="2" stroke-linejoin="round"/>
<path d="M28.8872 48.3334L40.742 28.8889L52.5969 48.3334H28.8872Z" fill="white"/>
<path fill-rule="evenodd" clip-rule="evenodd" d="M42.4659 30.708C41.6926 29.3935 39.7916 29.3935 39.0183 30.708L30.0959 45.8748C29.3116 47.208 30.2729 48.8889 31.8197 48.8889H49.6645C51.2113 48.8889 52.1727 47.208 51.3883 45.8748L42.4659 30.708Z" stroke="#919191" stroke-width="2" stroke-linejoin="round"/>
<path d="M40.7419 44.4445V45" stroke="#5E5E5E" stroke-width="2" stroke-linecap="round"/>
<path d="M40.7419 35.5558L40.7468 41.1111" stroke="#5E5E5E" stroke-width="2" stroke-linecap="round"/>
</svg>
