<svg width="80" height="80" viewBox="0 0 80 80" fill="none" xmlns="http://www.w3.org/2000/svg">
<path d="M23.4928 17.2222C21.1202 17.2222 19.7813 19.9468 21.231 21.8251L35.5117 40.328C35.8977 40.8281 36.107 41.442 36.107 42.0737V57.3335C36.107 58.3771 36.6761 59.3378 37.5914 59.8392L45.3213 64.0741V42.0737C45.3213 41.442 45.5307 40.8281 45.9167 40.328L60.1974 21.8251C61.6471 19.9468 60.3082 17.2222 57.9356 17.2222H23.4928Z" stroke="#C8C8C8" stroke-width="3" stroke-linejoin="round"/>
<path d="M37.2581 67.619L54.1935 39.8412L71.129 67.619H37.2581Z" fill="white"/>
<path fill-rule="evenodd" clip-rule="evenodd" d="M56.656 42.4401C55.5512 40.5622 52.8355 40.5622 51.7307 42.4401L38.9845 64.1068C37.864 66.0115 39.2373 68.4127 41.4471 68.4127H66.9396C69.1494 68.4127 70.5227 66.0115 69.4022 64.1068L56.656 42.4401Z" stroke="#919191" stroke-width="3" stroke-linejoin="round"/>
<path d="M54.1934 62.0635V62.8572" stroke="#5E5E5E" stroke-width="3" stroke-linecap="round"/>
<path d="M54.1934 49.3655L54.2003 57.3016" stroke="#5E5E5E" stroke-width="3" stroke-linecap="round"/>
</svg>
