<svg width="56" height="56" viewBox="0 0 56 56" fill="none" xmlns="http://www.w3.org/2000/svg">
<path d="M10.8333 10.7161V16.7654H16.9258" stroke="#C8C8C8" stroke-width="2" stroke-linecap="round" stroke-linejoin="round"/>
<path d="M9.09253 25.7099C9.09253 35.2317 16.4964 42.9507 25.6296 42.9507C34.7627 42.9507 42.1666 35.2317 42.1666 25.7099C42.1666 16.1881 34.7627 8.46918 25.6296 8.46918C19.5092 8.46918 14.1653 11.9355 11.3058 17.0879" stroke="#C8C8C8" stroke-width="2" stroke-linecap="round" stroke-linejoin="round"/>
<path d="M25.6306 16.8519L25.6296 26.9826L32.5926 34.1358" stroke="#C8C8C8" stroke-width="2" stroke-linecap="round" stroke-linejoin="round"/>
<path d="M27.8872 47.3334L39.742 27.8889L51.5969 47.3334H27.8872Z" fill="white"/>
<path fill-rule="evenodd" clip-rule="evenodd" d="M41.4659 29.708C40.6926 28.3935 38.7916 28.3935 38.0183 29.708L29.0959 44.8748C28.3116 46.208 29.2729 47.8889 30.8197 47.8889H48.6645C50.2113 47.8889 51.1727 46.208 50.3883 44.8748L41.4659 29.708Z" stroke="#919191" stroke-width="2" stroke-linejoin="round"/>
<path d="M39.7419 43.4445V44" stroke="#5E5E5E" stroke-width="2" stroke-linecap="round"/>
<path d="M39.7419 34.5558L39.7468 40.1111" stroke="#5E5E5E" stroke-width="2" stroke-linecap="round"/>
</svg>
