<svg width="56" height="56" viewBox="0 0 56 56" fill="none" xmlns="http://www.w3.org/2000/svg">
<path d="M39.7045 22.1482L36.7727 25.1482L26.0227 14.1482L28.9545 11.1482C30.4204 9.64812 35.7954 7.14815 39.7045 11.1482C43.6136 15.1482 41.1704 20.6481 39.7045 22.1482Z" stroke="#C8C8C8" stroke-width="2" stroke-linecap="round" stroke-linejoin="round"/>
<path d="M44.591 6.14813L39.7046 11.1481" stroke="#C8C8C8" stroke-width="2" stroke-linecap="round" stroke-linejoin="round"/>
<path d="M14.2955 26.148L17.2273 23.148L27.9773 34.148L25.0455 37.148C23.5796 38.6481 18.2046 41.1481 14.2955 37.148C10.3864 33.148 12.8296 27.6481 14.2955 26.148Z" stroke="#C8C8C8" stroke-width="2" stroke-linecap="round" stroke-linejoin="round"/>
<path d="M26.0227 32.1481L29.9318 28.1481" stroke="#C8C8C8" stroke-width="2" stroke-linecap="round" stroke-linejoin="round"/>
<path d="M9.40918 42.1481L14.2955 37.1481" stroke="#C8C8C8" stroke-width="2" stroke-linecap="round" stroke-linejoin="round"/>
<path d="M19.1819 25.1481L23.091 21.1481" stroke="#C8C8C8" stroke-width="2" stroke-linecap="round" stroke-linejoin="round"/>
<path d="M26.0808 47.3334L37.9357 27.8889L49.7905 47.3334H26.0808Z" fill="white"/>
<path fill-rule="evenodd" clip-rule="evenodd" d="M39.6595 29.708C38.8862 28.3935 36.9852 28.3935 36.2119 29.708L27.2895 44.8748C26.5052 46.208 27.4665 47.8889 29.0133 47.8889H46.8581C48.4049 47.8889 49.3663 46.208 48.5819 44.8748L39.6595 29.708Z" stroke="#919191" stroke-width="2" stroke-linejoin="round"/>
<path d="M37.9355 43.4445V44" stroke="#5E5E5E" stroke-width="2" stroke-linecap="round"/>
<path d="M37.9355 34.5558L37.9404 40.1111" stroke="#5E5E5E" stroke-width="2" stroke-linecap="round"/>
</svg>
